<?xml version="1.0" standalone="no"?>
<!DOCTYPE svg PUBLIC "-//W3C//DTD SVG 20010904//EN"
 "http://www.w3.org/TR/2001/REC-SVG-20010904/DTD/svg10.dtd">
<svg version="1.0" xmlns="http://www.w3.org/2000/svg"
 width="4148.000000pt" height="1126.000000pt" viewBox="0 0 4148.000000 1126.000000"
 preserveAspectRatio="xMidYMid meet">

<g transform="translate(0.000000,1126.000000) scale(0.100000,-0.100000)"
fill="#000000" stroke="none">
<path d="M10750 9196 c0 -3 21 -51 47 -106 27 -59 42 -104 37 -109 -13 -12
-1945 -1053 -1974 -1064 -20 -7 -162 33 -743 212 -395 122 -725 221 -733 221
-15 0 -1034 -447 -1046 -459 -10 -9 13 -71 27 -71 6 0 235 99 510 220 274 121
506 220 514 220 8 0 339 -100 736 -221 606 -186 724 -220 746 -211 15 5 467
247 1004 537 537 290 984 529 993 532 13 3 26 -17 56 -81 21 -47 42 -84 46
-81 11 7 202 366 197 371 -2 2 -89 22 -193 44 -104 22 -197 43 -206 46 -10 3
-18 3 -18 0z"/>
<path d="M12480 6035 l0 -2125 40 0 40 0 0 2125 0 2125 -40 0 -40 0 0 -2125z"/>
<path d="M7335 7869 c-292 -27 -597 -133 -835 -289 -634 -416 -925 -1155 -769
-1950 146 -742 767 -1313 1538 -1415 125 -17 382 -19 501 -5 539 67 998 344
1295 780 72 106 174 314 214 440 122 378 122 843 0 1220 -98 303 -294 597
-532 797 -386 324 -880 471 -1412 422z m333 -914 c158 -15 319 -92 438 -210
185 -184 264 -424 251 -765 -8 -207 -47 -350 -133 -491 -102 -169 -261 -289
-451 -341 -65 -18 -105 -22 -243 -21 -151 0 -173 2 -255 27 -141 43 -218 88
-315 186 -96 96 -139 163 -186 290 -47 123 -65 238 -65 410 0 222 31 364 112
521 122 234 333 371 612 398 80 8 108 8 235 -4z"/>
<path d="M9925 7849 c-358 -38 -703 -176 -948 -381 l-47 -40 63 -71 c204 -230
358 -520 427 -803 l22 -92 46 92 c37 73 64 109 137 182 75 76 104 98 175 132
118 57 222 76 374 70 97 -4 138 -11 205 -34 156 -52 293 -165 382 -314 l41
-70 535 0 534 0 -7 38 c-14 79 -94 302 -144 402 -191 381 -519 664 -929 800
-258 86 -579 119 -866 89z"/>
<path d="M15606 7455 c-149 -347 -181 -405 -225 -405 -12 0 -21 -4 -21 -10 0
-6 47 -10 120 -10 73 0 120 4 120 10 0 6 -10 10 -23 10 -12 0 -33 7 -46 16
-27 19 -25 31 21 141 l31 73 147 0 147 0 31 -81 c44 -112 40 -149 -15 -149
-13 0 -23 -4 -23 -10 0 -6 55 -10 145 -10 90 0 145 4 145 10 0 6 -8 10 -18 10
-26 0 -60 27 -79 63 -9 18 -78 178 -153 356 -76 179 -141 326 -147 328 -5 2
-76 -152 -157 -342z m198 -2 l55 -133 -130 0 c-72 0 -128 3 -126 8 3 4 30 68
62 142 69 163 66 158 76 134 4 -10 32 -79 63 -151z"/>
<path d="M12970 7770 c0 -5 12 -10 26 -10 28 0 65 -16 76 -34 4 -6 8 -151 8
-321 0 -349 -1 -355 -65 -355 -19 0 -37 -4 -40 -10 -4 -7 52 -10 159 -10 104
0 166 4 166 10 0 6 -16 10 -35 10 -22 0 -43 8 -55 20 -20 20 -21 30 -18 340 3
306 4 320 23 334 11 9 35 16 53 16 17 0 32 5 32 10 0 6 -62 10 -165 10 -103 0
-165 -4 -165 -10z"/>
<path d="M13310 7771 c0 -5 17 -11 38 -14 20 -4 54 -21 75 -38 l38 -31 -3
-305 c-3 -288 -4 -305 -22 -319 -11 -8 -35 -14 -53 -14 -18 0 -33 -4 -33 -10
0 -6 52 -10 136 -10 87 0 133 4 129 10 -3 6 -22 10 -40 10 -63 0 -66 13 -63
305 l3 258 245 -299 c135 -164 250 -297 255 -296 6 1 12 133 15 358 5 337 6
356 24 370 11 8 32 14 48 14 15 0 28 5 28 10 0 6 -50 10 -130 10 -80 0 -130
-4 -130 -10 0 -5 13 -10 29 -10 16 0 39 -9 52 -19 24 -19 24 -20 27 -265 2
-135 -1 -246 -5 -246 -5 0 -109 124 -232 275 l-223 275 -104 0 c-57 0 -104 -4
-104 -9z"/>
<path d="M14170 7770 c0 -5 13 -10 29 -10 16 0 39 -9 52 -19 l24 -19 0 -315
c0 -296 -1 -316 -19 -336 -12 -13 -31 -21 -53 -21 -18 0 -33 -5 -33 -11 0 -7
74 -10 243 -7 l242 3 66 31 c83 40 133 90 173 173 28 60 31 75 31 166 -1 80
-5 111 -23 156 -44 111 -126 178 -248 204 -82 17 -484 21 -484 5z m467 -64
c58 -29 107 -82 137 -145 17 -38 21 -65 21 -161 0 -102 -3 -121 -25 -165 -53
-106 -145 -167 -258 -167 -37 -1 -82 3 -100 6 l-32 8 2 321 3 322 35 7 c66 13
165 1 217 -26z"/>
<path d="M15000 7770 c0 -5 14 -10 30 -10 20 0 40 -9 56 -25 l25 -25 -3 -316
c-3 -299 -4 -316 -22 -330 -11 -8 -35 -14 -53 -14 -18 0 -33 -4 -33 -10 0 -6
62 -10 166 -10 107 0 163 3 159 10 -3 6 -18 10 -33 10 -15 0 -38 7 -50 16 -22
15 -22 16 -22 335 0 306 1 320 20 339 12 12 33 20 55 20 19 0 35 5 35 10 0 6
-62 10 -165 10 -103 0 -165 -4 -165 -10z"/>
<path d="M16160 7771 c0 -5 18 -11 40 -15 23 -4 54 -19 75 -37 l35 -31 0 -299
c0 -286 -1 -300 -20 -319 -11 -11 -33 -20 -49 -20 -17 0 -33 -4 -36 -10 -4 -6
42 -10 130 -10 88 0 134 4 130 10 -3 6 -19 10 -36 10 -16 0 -38 9 -49 20 -19
19 -20 33 -20 280 0 143 2 260 4 260 3 0 115 -135 251 -300 135 -165 250 -300
255 -300 6 0 10 137 10 355 0 342 1 356 20 375 11 11 33 20 50 20 17 0 30 5
30 10 0 6 -50 10 -130 10 -74 0 -130 -4 -130 -9 0 -6 16 -11 37 -13 25 -2 42
-11 55 -28 17 -23 18 -44 16 -268 l-3 -243 -228 281 -228 280 -105 0 c-57 0
-104 -4 -104 -9z"/>
<path d="M13239 6407 c-78 -27 -144 -78 -188 -144 -48 -73 -64 -139 -59 -252
5 -124 36 -198 114 -271 78 -74 128 -93 244 -94 88 -1 100 1 162 32 288 141
282 586 -10 720 -80 36 -176 40 -263 9z m227 -47 c48 -30 91 -91 111 -159 24
-78 24 -266 1 -342 -49 -157 -219 -228 -341 -143 -155 109 -167 501 -19 624
20 17 51 35 67 40 48 15 140 5 181 -20z"/>
<path d="M15807 6420 c-110 -28 -218 -124 -257 -227 -44 -118 -36 -256 22
-366 37 -70 92 -120 167 -156 48 -22 69 -26 151 -26 84 0 102 3 152 28 74 36
159 128 189 204 19 48 24 77 24 163 0 97 -2 110 -31 170 -37 80 -111 155 -182
187 -59 28 -173 38 -235 23z m192 -61 c84 -47 121 -134 129 -302 8 -196 -35
-303 -141 -353 -85 -39 -163 -31 -227 23 -74 64 -110 166 -110 316 0 220 100
356 252 344 33 -3 74 -15 97 -28z"/>
<path d="M17336 6415 c-111 -39 -164 -158 -117 -261 24 -53 76 -96 209 -172
128 -72 172 -116 172 -168 0 -101 -96 -154 -214 -120 -75 22 -121 68 -143 146
-10 33 -21 60 -25 60 -5 0 -8 -58 -8 -130 0 -118 9 -162 23 -110 7 26 31 25
119 -1 188 -57 348 32 348 194 0 96 -46 143 -256 262 -146 83 -178 130 -139
205 46 88 218 76 280 -19 13 -20 29 -57 36 -83 6 -27 15 -48 20 -48 5 0 9 59
9 130 0 72 -3 130 -8 130 -4 0 -13 -9 -20 -20 -15 -25 -32 -25 -102 0 -65 23
-130 25 -184 5z"/>
<path d="M13790 6400 c0 -5 15 -10 33 -10 22 0 41 -8 53 -21 18 -20 19 -40 19
-334 0 -294 -1 -314 -19 -334 -12 -13 -31 -21 -53 -21 -18 0 -33 -4 -33 -10 0
-6 60 -10 160 -10 100 0 160 4 160 10 0 6 -15 10 -33 10 -63 0 -72 22 -75 187
l-4 145 31 -7 c50 -11 153 -8 198 5 49 15 100 61 119 107 18 41 18 124 0 166
-19 46 -78 94 -138 112 -61 18 -418 22 -418 5z m370 -55 c34 -17 55 -49 70
-105 15 -57 4 -115 -31 -155 -41 -46 -77 -59 -144 -50 l-56 7 3 156 3 156 25
7 c32 10 95 2 130 -16z"/>
<path d="M14446 6373 c-16 -97 2 -197 19 -106 3 20 19 49 35 65 27 26 33 28
115 28 l86 0 -3 -326 c-3 -309 -4 -326 -22 -340 -11 -8 -32 -14 -47 -14 -15 0
-31 -4 -34 -10 -4 -7 50 -10 154 -10 101 0 161 4 161 10 0 6 -15 10 -33 10
-67 0 -67 0 -67 358 l0 322 84 0 c78 0 86 -2 114 -28 18 -17 33 -44 37 -65 4
-20 11 -37 16 -37 10 0 12 139 3 164 -5 14 -42 16 -309 16 l-302 0 -7 -37z"/>
<path d="M15130 6400 c0 -5 13 -10 29 -10 16 0 39 -9 52 -19 l24 -19 0 -315
c0 -296 -1 -316 -19 -336 -12 -13 -31 -21 -53 -21 -18 0 -33 -4 -33 -10 0 -6
60 -10 160 -10 100 0 160 4 160 10 0 6 -13 10 -29 10 -16 0 -39 9 -52 19 l-24
19 0 317 0 317 24 19 c13 10 36 19 52 19 16 0 29 5 29 10 0 6 -60 10 -160 10
-100 0 -160 -4 -160 -10z"/>
<path d="M16290 6401 c0 -5 18 -11 40 -15 23 -4 54 -19 75 -37 l35 -31 0 -290
c0 -336 -2 -347 -77 -348 -18 0 -33 -4 -33 -10 0 -6 50 -10 130 -10 80 0 130
4 130 10 0 6 -16 10 -35 10 -63 0 -66 12 -63 305 l3 258 245 -299 c135 -164
250 -297 255 -296 6 1 11 130 12 354 3 346 3 353 24 371 12 9 34 17 50 17 16
0 29 5 29 10 0 6 -50 10 -130 10 -80 0 -130 -4 -130 -10 0 -5 15 -10 33 -10
22 0 41 -8 53 -21 17 -19 19 -42 22 -265 2 -134 0 -244 -5 -244 -5 0 -109 124
-232 275 l-224 275 -103 0 c-57 0 -104 -4 -104 -9z"/>
<path d="M19830 6332 c0 -5 17 -12 38 -15 81 -13 77 8 80 -389 2 -194 0 -363
-3 -375 -6 -26 -52 -53 -90 -53 -14 0 -25 -5 -25 -11 0 -15 552 -6 601 9 119
39 187 149 165 267 -11 59 -81 125 -155 144 -21 6 -20 9 26 37 115 72 124 234
19 321 -72 59 -114 66 -398 71 -161 2 -258 0 -258 -6z m498 -64 c63 -30 97
-86 97 -157 -1 -124 -105 -184 -288 -166 l-67 7 2 167 3 166 35 7 c59 11 171
-1 218 -24z m15 -398 c63 -30 99 -77 105 -140 6 -65 -2 -93 -39 -134 -53 -61
-160 -84 -291 -62 l-48 7 0 173 c0 95 3 176 8 180 4 5 54 6 112 4 82 -4 115
-10 153 -28z"/>
<path d="M20780 6050 c0 -5 13 -16 30 -25 37 -19 56 -52 179 -311 l101 -212
-30 -73 c-33 -80 -63 -119 -92 -119 -10 0 -38 5 -62 12 -38 10 -48 9 -70 -5
-35 -24 -35 -68 0 -96 65 -51 179 2 234 109 10 20 74 172 141 336 143 353 143
352 174 364 51 19 25 30 -70 30 -98 0 -117 -7 -65 -27 21 -8 30 -18 30 -33 0
-22 -131 -360 -140 -360 -10 1 -160 325 -160 345 0 29 12 43 43 50 61 16 20
25 -108 25 -81 0 -135 -4 -135 -10z"/>
<path d="M9436 5589 c-3 -8 -17 -59 -31 -113 -72 -269 -219 -537 -416 -757
l-68 -76 62 -50 c224 -181 504 -306 802 -358 239 -41 547 -37 785 11 568 114
1004 471 1210 990 27 68 90 275 90 296 0 4 -242 8 -537 8 l-538 0 -29 -55
c-67 -129 -206 -254 -344 -310 -139 -56 -338 -68 -488 -30 -195 51 -357 187
-456 384 -21 41 -39 68 -42 60z"/>
<path d="M13277 5049 c-107 -25 -217 -122 -258 -227 -52 -135 -31 -312 49
-417 94 -123 280 -169 429 -105 51 21 136 100 162 148 21 40 -8 25 -56 -28
-56 -63 -109 -91 -183 -97 -209 -19 -337 160 -300 417 11 80 47 170 83 208 62
66 186 90 274 52 28 -12 62 -33 76 -48 26 -27 77 -121 77 -141 0 -6 5 -11 11
-11 7 0 8 29 4 88 -12 175 -19 200 -44 146 -13 -30 -29 -29 -121 5 -58 21
-137 25 -203 10z"/>
<path d="M14027 5050 c-99 -25 -199 -110 -245 -208 -25 -52 -27 -68 -27 -177
0 -109 2 -125 27 -177 37 -80 105 -149 181 -184 54 -25 74 -29 152 -29 76 0
99 5 147 27 200 93 283 347 181 555 -32 65 -116 147 -180 175 -54 24 -174 33
-236 18z m156 -41 c118 -32 188 -194 174 -398 -9 -118 -30 -175 -87 -232 -78
-78 -190 -91 -275 -31 -89 62 -138 235 -115 404 28 204 143 302 303 257z"/>
<path d="M15675 5046 c-107 -34 -195 -111 -243 -214 -25 -52 -27 -68 -27 -177
0 -109 2 -125 26 -175 39 -82 90 -135 167 -172 61 -30 74 -33 162 -33 77 0
104 5 145 23 55 25 115 78 147 130 33 54 11 50 -38 -6 -56 -64 -109 -93 -184
-99 -114 -11 -217 43 -265 138 -70 138 -50 370 41 478 38 46 116 81 179 80
108 0 180 -48 227 -149 18 -38 37 -70 41 -70 7 0 6 24 -9 198 -6 67 -14 76
-33 36 -13 -30 -29 -29 -121 5 -63 23 -154 26 -215 7z"/>
<path d="M17197 5028 c-133 -316 -275 -640 -291 -666 -12 -17 -36 -37 -53 -44
-18 -7 -33 -16 -33 -20 0 -4 54 -8 120 -8 73 0 120 4 120 10 0 6 -11 10 -24
10 -13 0 -34 9 -47 19 -24 19 -24 19 -7 68 10 27 27 71 38 96 l21 47 147 0
147 0 34 -83 c40 -100 39 -128 -6 -142 -63 -18 -32 -25 112 -25 136 0 183 10
116 25 -53 11 -49 4 -222 415 -75 178 -141 326 -147 328 -6 2 -17 -12 -25 -30z
m-5 -446 c-69 -1 -126 -1 -128 1 -4 3 95 237 117 279 10 18 19 2 74 -128 l62
-149 -125 -3z"/>
<path d="M14520 5031 c0 -5 17 -11 39 -15 23 -3 52 -18 70 -35 l31 -29 0 -305
c0 -305 0 -306 -22 -321 -12 -9 -35 -16 -50 -16 -16 0 -28 -4 -28 -10 0 -6 50
-10 130 -10 80 0 130 4 130 10 0 6 -15 10 -33 10 -22 0 -41 8 -53 21 -17 19
-19 42 -22 281 -2 167 0 259 7 257 5 -2 116 -134 246 -294 131 -159 244 -291
251 -293 12 -3 14 53 14 338 0 393 1 399 78 400 17 0 32 5 32 10 0 6 -50 10
-130 10 -80 0 -130 -4 -130 -10 0 -5 14 -10 30 -10 17 0 39 -9 50 -20 19 -19
20 -33 20 -266 0 -135 -3 -243 -7 -241 -5 3 -107 127 -228 276 l-220 270 -102
1 c-57 0 -103 -4 -103 -9z"/>
<path d="M16140 5030 c0 -5 15 -10 33 -10 22 0 41 -8 53 -21 18 -20 19 -40 19
-336 l0 -315 -24 -19 c-13 -10 -36 -19 -52 -19 -16 0 -29 -4 -29 -10 0 -6 104
-10 293 -10 l292 0 31 100 c18 55 28 103 23 106 -5 2 -15 -10 -22 -29 -19 -45
-70 -102 -105 -116 -17 -7 -74 -11 -152 -9 -121 3 -125 4 -137 28 -16 31 -18
536 -3 589 12 43 36 60 83 61 20 0 37 5 37 10 0 6 -63 10 -170 10 -107 0 -170
-4 -170 -10z"/>
<path d="M17500 5030 c0 -5 7 -10 15 -10 9 0 29 -7 44 -15 30 -15 29 -13 245
-508 52 -121 97 -221 100 -225 4 -3 10 -1 15 4 5 5 67 149 136 319 70 171 136
326 146 347 20 38 63 78 85 78 8 0 14 5 14 10 0 6 -45 10 -115 10 -70 0 -115
-4 -115 -10 0 -5 6 -10 14 -10 8 0 26 -10 41 -22 23 -21 24 -26 15 -58 -22
-75 -195 -489 -201 -482 -11 11 -205 463 -213 494 -8 34 22 68 59 68 14 0 25
5 25 10 0 6 -58 10 -155 10 -97 0 -155 -4 -155 -10z"/>
<path d="M18340 5030 c0 -5 15 -10 33 -10 67 0 67 0 67 -358 0 -320 0 -321
-22 -336 -12 -9 -35 -16 -50 -16 -16 0 -28 -4 -28 -10 0 -6 103 -10 289 -10
l289 0 32 90 c18 50 29 94 25 98 -4 4 -12 -2 -19 -12 -71 -120 -103 -136 -263
-136 -111 0 -123 2 -133 19 -5 11 -10 84 -10 165 l0 146 114 0 c129 0 152 -10
165 -69 3 -19 12 -36 19 -39 9 -3 12 28 12 127 0 83 -4 131 -10 131 -6 0 -13
-8 -16 -17 -27 -85 -44 -93 -191 -93 l-93 0 0 150 0 150 135 0 c79 0 144 -5
159 -11 25 -12 56 -63 56 -93 0 -9 7 -16 16 -16 12 0 15 6 10 23 -3 12 -6 48
-6 80 l0 57 -290 0 c-187 0 -290 -4 -290 -10z"/>
<path d="M4470 3015 l0 -575 7280 0 7280 0 0 575 0 575 -7280 0 -7280 0 0
-575z m4624 102 c129 -298 154 -347 181 -357 14 -5 25 -12 25 -15 0 -3 -61 -5
-135 -5 -83 0 -135 4 -135 10 0 6 14 10 30 10 25 0 30 4 30 24 0 13 -9 45 -20
71 l-20 46 -97 -3 -97 -3 -18 -47 c-21 -57 -15 -77 23 -85 63 -12 35 -23 -58
-22 -80 0 -94 2 -79 12 44 27 66 65 171 301 60 135 112 246 115 246 3 0 41
-82 84 -183z m2383 168 c32 -22 46 -75 34 -123 -14 -52 -44 -88 -92 -112 -47
-24 -51 -13 -8 19 32 24 64 85 54 101 -4 6 -17 7 -31 4 -18 -5 -32 0 -50 17
-29 28 -30 48 -3 83 23 30 63 34 96 11z m463 -4 c45 -20 70 -18 70 5 0 8 5 14
10 14 6 0 10 -37 10 -90 0 -88 -12 -119 -23 -61 -19 95 -153 156 -212 96 -52
-51 -24 -94 104 -161 133 -70 184 -140 161 -225 -30 -109 -142 -155 -276 -112
-51 16 -54 16 -74 -2 -11 -10 -23 -16 -25 -13 -3 3 -4 52 -3 109 3 96 4 102
16 74 7 -16 20 -45 29 -63 53 -111 243 -125 243 -18 0 48 -22 71 -113 118
-140 73 -189 136 -173 222 8 43 49 94 91 112 44 19 116 17 165 -5z m1414 -234
c113 -257 129 -287 151 -287 8 0 15 -4 15 -10 0 -6 -50 -10 -130 -10 -74 0
-130 4 -130 9 0 5 12 11 28 13 23 3 27 7 25 33 0 17 -8 47 -17 68 l-16 37 -96
0 -95 0 -21 -46 c-25 -57 -14 -94 27 -94 14 0 25 -4 25 -10 0 -6 -37 -10 -92
-10 -84 1 -91 2 -74 15 11 8 23 15 28 15 11 0 58 96 163 333 49 108 92 194 96
190 4 -5 55 -115 113 -246z m1886 78 l0 -175 25 0 c23 0 25 -4 25 -45 0 -41
-2 -45 -25 -45 -24 0 -25 -3 -25 -60 l0 -60 -55 0 -55 0 0 60 0 60 -100 0
-100 0 0 45 c0 41 9 56 130 220 108 145 134 175 155 175 l25 0 0 -175z m691
152 c73 -49 103 -125 103 -262 0 -100 -13 -155 -47 -206 -86 -127 -230 -95
-283 63 -36 106 -16 294 37 363 52 66 129 83 190 42z m-7971 -62 c0 -80 -11
-96 -30 -41 -17 53 -53 80 -108 80 l-47 1 0 -231 c0 -248 3 -264 51 -264 13 0
24 -4 24 -10 0 -6 -53 -10 -140 -10 -87 0 -140 4 -140 10 0 6 10 10 23 10 45
0 47 10 47 262 l0 238 -30 0 c-58 0 -96 -24 -116 -74 -10 -25 -22 -46 -26 -46
-5 0 -8 34 -8 75 l0 75 250 0 250 0 0 -75z m529 50 c53 -31 76 -69 76 -125 0
-57 -23 -95 -78 -126 l-36 -20 77 -110 c43 -60 87 -113 100 -119 40 -18 23
-25 -62 -25 l-84 0 -89 125 c-113 160 -123 162 -123 22 0 -109 6 -127 47 -127
13 0 23 -4 23 -10 0 -6 -54 -10 -141 -10 -91 0 -138 4 -134 10 3 6 17 10 30
10 14 0 29 8 35 19 6 12 10 106 10 236 0 130 -4 224 -10 236 -6 11 -21 19 -35
19 -13 0 -27 5 -31 11 -5 8 49 10 192 8 177 -4 203 -6 233 -24z m1282 3 c106
-47 164 -149 157 -273 -8 -113 -54 -181 -153 -227 -45 -21 -68 -23 -222 -26
-113 -2 -173 0 -173 7 0 5 12 11 27 13 47 5 53 33 53 253 0 220 -6 248 -53
253 -15 2 -27 8 -27 14 0 17 348 5 391 -14z m729 -58 c0 -82 -13 -106 -24 -46
-12 65 -89 104 -186 94 l-35 -3 -3 -104 c-1 -57 1 -107 5 -111 4 -4 23 -3 41
2 32 9 35 13 70 98 8 19 11 -9 11 -117 1 -79 -1 -143 -4 -143 -2 0 -9 17 -14
38 -14 51 -45 82 -81 82 l-30 0 0 -99 c0 -77 4 -103 16 -115 31 -32 157 -13
206 31 12 10 30 37 40 61 11 24 22 41 25 38 3 -3 0 -43 -7 -90 l-12 -86 -240
0 c-157 0 -237 3 -233 10 3 6 16 10 29 10 44 0 46 11 46 255 0 244 -2 255 -46
255 -13 0 -26 5 -29 10 -4 7 73 10 224 10 l231 0 0 -80z m580 54 c80 -46 105
-143 54 -204 -15 -17 -41 -38 -59 -48 l-33 -17 85 -117 c46 -65 90 -118 98
-118 8 0 17 -4 20 -10 4 -6 -26 -10 -83 -10 l-88 0 -88 125 c-113 161 -126
164 -126 29 0 -106 9 -134 45 -134 13 0 27 -4 30 -10 4 -6 -43 -10 -134 -10
-87 0 -141 4 -141 10 0 6 10 10 23 10 45 0 47 11 47 255 0 244 -2 255 -47 255
-13 0 -23 5 -23 11 0 8 58 10 193 7 172 -3 196 -5 227 -24z m1830 -54 c0 -47
-4 -80 -10 -80 -5 0 -10 11 -10 25 0 60 -76 104 -182 105 l-48 0 0 -116 0
-116 38 6 c43 8 80 45 89 87 13 66 23 20 23 -106 0 -129 -11 -173 -24 -101 -8
43 -57 86 -97 86 l-29 0 0 -108 c0 -114 6 -132 46 -132 13 0 26 -4 29 -10 4
-6 -45 -10 -139 -10 -91 0 -146 4 -146 10 0 6 13 10 29 10 44 0 51 34 51 259
0 216 -6 244 -53 249 -15 2 -27 8 -27 13 0 5 94 9 230 9 l230 0 0 -80z m990
70 c0 -5 -13 -10 -30 -10 -19 0 -33 -7 -40 -19 -6 -12 -10 -106 -10 -236 0
-130 4 -224 10 -236 7 -12 21 -19 40 -19 17 0 30 -4 30 -10 0 -6 -55 -10 -146
-10 -94 0 -143 4 -139 10 3 6 17 10 30 10 14 0 29 8 35 19 6 12 10 108 10 243
0 236 -2 248 -46 248 -13 0 -26 5 -29 10 -4 6 45 10 139 10 91 0 146 -4 146
-10z m520 -16 c56 -32 83 -80 77 -137 -5 -52 -30 -87 -84 -115 l-31 -17 80
-113 c45 -64 91 -117 104 -123 13 -4 24 -11 24 -14 0 -3 -40 -5 -88 -5 l-89 0
-88 125 c-114 162 -125 164 -125 22 0 -109 7 -127 46 -127 13 0 26 -4 29 -10
4 -6 -43 -10 -134 -10 -87 0 -141 4 -141 10 0 6 10 10 23 10 45 0 47 11 47
255 0 244 -2 255 -47 255 -13 0 -23 5 -23 11 0 8 58 10 193 7 172 -3 196 -5
227 -24z m1101 -404 c9 0 39 -53 39 -70 0 -19 -48 -60 -71 -60 -28 0 -69 37
-69 62 0 43 44 84 78 72 8 -2 18 -4 23 -4z"/>
<path d="M8917 3026 c-20 -47 -37 -87 -37 -90 0 -3 34 -6 75 -6 41 0 75 4 75
8 0 10 -64 160 -72 167 -2 3 -21 -33 -41 -79z"/>
<path d="M13143 3022 l-42 -92 80 0 c93 0 90 -8 35 114 l-31 69 -42 -91z"/>
<path d="M15048 3055 l-77 -105 79 0 80 0 0 105 c0 58 -1 105 -3 105 -1 0 -37
-47 -79 -105z"/>
<path d="M15822 3245 c-17 -37 -16 -421 1 -455 17 -33 51 -37 71 -8 13 19 16
56 16 230 0 229 -6 258 -50 258 -19 0 -30 -7 -38 -25z"/>
<path d="M8270 3139 l0 -122 58 6 c77 8 102 36 102 113 0 31 -5 64 -11 76 -13
25 -68 48 -114 48 l-35 0 0 -121z"/>
<path d="M9590 3022 c0 -209 2 -241 16 -246 49 -19 112 10 145 67 22 38 24 53
24 162 0 106 -3 126 -24 168 -25 52 -55 73 -120 83 l-41 7 0 -241z"/>
<path d="M10860 3140 l0 -122 56 4 c81 7 109 37 109 118 0 81 -28 111 -109
118 l-56 4 0 -122z"/>
<path d="M14200 3141 l0 -121 43 0 c57 0 89 18 110 63 23 46 16 106 -17 144
-18 21 -34 27 -79 31 l-57 4 0 -121z"/>
</g>
</svg>
